<svg width="171" height="220" viewBox="0 0 171 220" fill="none" xmlns="http://www.w3.org/2000/svg">
<path fill-rule="evenodd" clip-rule="evenodd" d="M113.496 7.78876C115.589 7.6393 117.164 5.82186 117.015 3.7294C116.865 1.63694 115.048 0.061831 112.955 0.211293C97.8289 1.29174 88.0887 8.89248 83.1036 18.4711C79.4093 13.4656 73.7733 10.8651 68.156 9.71159C60.3417 8.10686 51.8894 9.08785 46.4659 10.4437L41.3968 11.711L44.1661 16.1418C53.8164 31.5823 69.5182 33.1119 79.2592 31.538C78.6553 37.6827 79.617 43.7416 81.9343 48.6658C82.8275 50.5639 85.0903 51.3785 86.9884 50.4853C88.8866 49.592 89.7012 47.3292 88.808 45.4311C86.7515 41.0611 86.0777 35.1614 87.2633 29.319L87.3768 29.2812L87.3191 29.0504C87.7871 26.8511 88.5199 24.6632 89.5429 22.5717C93.2086 15.0769 100.661 8.70559 113.496 7.78876ZM77.7151 24.1106C71.1753 25.1191 61.5115 24.2656 54.2337 16.7711C58.1292 16.3393 62.5586 16.3174 66.6279 17.1531C71.5351 18.1608 75.4889 20.2804 77.7151 24.1106Z" fill="white"/>
<path d="M153.742 84.2246C153.742 22.8043 86.5298 50.9552 86.5298 50.9552H84.2121C84.2121 50.9552 17 22.8043 17 84.2246C17 145.645 50.9923 161 67.9885 161C77.2592 160.182 80.5039 153.323 84.2121 153.323H86.5298C90.2381 153.323 93.4828 160.182 102.753 161C119.75 161 153.742 145.645 153.742 84.2246Z" stroke="white" stroke-width="10.129" stroke-linecap="round"/>
<path d="M87.9032 74.9033V105.29H125.887" stroke="white" stroke-width="10.129" stroke-linecap="round"/>
<path d="M13.1266 212.32C11.484 212.32 9.96929 212.043 8.58263 211.488C7.21729 210.912 6.02263 210.112 4.99863 209.088C3.99596 208.043 3.21729 206.816 2.66263 205.408C2.10796 203.979 1.83063 202.421 1.83063 200.736C1.83063 199.093 2.11863 197.579 2.69463 196.192C3.27063 194.784 4.08129 193.568 5.12663 192.544C6.17196 191.499 7.39863 190.688 8.80663 190.112C10.2146 189.536 11.74 189.248 13.3826 189.248C14.4493 189.248 15.4946 189.397 16.5186 189.696C17.564 189.973 18.5133 190.389 19.3666 190.944C20.2413 191.499 20.988 192.16 21.6066 192.928L18.5986 196.256C18.0866 195.744 17.5533 195.307 16.9986 194.944C16.4653 194.56 15.8893 194.272 15.2706 194.08C14.6733 193.867 14.0333 193.76 13.3506 193.76C12.4333 193.76 11.5693 193.931 10.7586 194.272C9.96929 194.613 9.27596 195.093 8.67863 195.712C8.08129 196.309 7.60129 197.045 7.23863 197.92C6.89729 198.773 6.72663 199.723 6.72663 200.768C6.72663 201.835 6.89729 202.805 7.23863 203.68C7.57996 204.533 8.05996 205.269 8.67863 205.888C9.29729 206.485 10.0333 206.955 10.8866 207.296C11.7613 207.616 12.7213 207.776 13.7666 207.776C14.4493 207.776 15.1106 207.68 15.7506 207.488C16.3906 207.296 16.9773 207.029 17.5106 206.688C18.0653 206.347 18.556 205.952 18.9826 205.504L21.3186 209.248C20.8066 209.824 20.1133 210.347 19.2386 210.816C18.3853 211.285 17.4253 211.659 16.3586 211.936C15.292 212.192 14.2146 212.32 13.1266 212.32ZM24.7251 212V195.072H29.1091L29.2691 200.512L28.5011 199.392C28.7571 198.517 29.1731 197.728 29.7491 197.024C30.3251 196.299 30.9971 195.733 31.7651 195.328C32.5545 194.923 33.3758 194.72 34.2291 194.72C34.5918 194.72 34.9438 194.752 35.2851 194.816C35.6265 194.88 35.9145 194.955 36.1491 195.04L34.9331 200.032C34.6771 199.904 34.3678 199.797 34.0051 199.712C33.6425 199.605 33.2691 199.552 32.8851 199.552C32.3731 199.552 31.8931 199.648 31.4451 199.84C31.0185 200.011 30.6451 200.267 30.3251 200.608C30.0051 200.928 29.7491 201.312 29.5571 201.76C29.3865 202.208 29.3011 202.699 29.3011 203.232V212H24.7251ZM45.9096 212.32C44.1816 212.32 42.635 211.947 41.2696 211.2C39.9256 210.432 38.859 209.387 38.0696 208.064C37.3016 206.741 36.9176 205.227 36.9176 203.52C36.9176 201.813 37.3016 200.309 38.0696 199.008C38.859 197.685 39.9256 196.64 41.2696 195.872C42.635 195.104 44.1816 194.72 45.9096 194.72C47.6163 194.72 49.1416 195.104 50.4856 195.872C51.851 196.64 52.9176 197.685 53.6856 199.008C54.4536 200.309 54.8376 201.813 54.8376 203.52C54.8376 205.227 54.4536 206.741 53.6856 208.064C52.9176 209.387 51.851 210.432 50.4856 211.2C49.1416 211.947 47.6163 212.32 45.9096 212.32ZM45.9096 208.352C46.7416 208.352 47.4883 208.149 48.1496 207.744C48.811 207.317 49.323 206.741 49.6856 206.016C50.0696 205.269 50.2616 204.437 50.2616 203.52C50.2616 202.581 50.0696 201.749 49.6856 201.024C49.323 200.277 48.811 199.701 48.1496 199.296C47.4883 198.869 46.7416 198.656 45.9096 198.656C45.0563 198.656 44.299 198.869 43.6376 199.296C42.9763 199.723 42.4536 200.299 42.0696 201.024C41.6856 201.749 41.5043 202.581 41.5256 203.52C41.5043 204.437 41.6856 205.269 42.0696 206.016C42.4536 206.741 42.9763 207.317 43.6376 207.744C44.299 208.149 45.0563 208.352 45.9096 208.352ZM58.2564 212V195.072H62.6084L62.7364 198.528L61.8404 198.912C62.075 198.144 62.491 197.451 63.0884 196.832C63.707 196.192 64.443 195.68 65.2964 195.296C66.1497 194.912 67.0457 194.72 67.9844 194.72C69.2644 194.72 70.331 194.976 71.1844 195.488C72.059 196 72.7097 196.779 73.1364 197.824C73.5844 198.848 73.8084 200.117 73.8084 201.632V212H69.2644V201.984C69.2644 201.216 69.1577 200.576 68.9444 200.064C68.731 199.552 68.4004 199.179 67.9524 198.944C67.5257 198.688 66.9924 198.581 66.3524 198.624C65.8404 198.624 65.3604 198.709 64.9124 198.88C64.4857 199.029 64.1124 199.253 63.7924 199.552C63.4937 199.851 63.2484 200.192 63.0564 200.576C62.8857 200.96 62.8004 201.376 62.8004 201.824V212H60.5604C60.0697 212 59.6324 212 59.2484 212C58.8644 212 58.5337 212 58.2564 212ZM86.0346 212.32C84.3066 212.32 82.76 211.947 81.3946 211.2C80.0506 210.432 78.984 209.387 78.1946 208.064C77.4266 206.741 77.0426 205.227 77.0426 203.52C77.0426 201.813 77.4266 200.309 78.1946 199.008C78.984 197.685 80.0506 196.64 81.3946 195.872C82.76 195.104 84.3066 194.72 86.0346 194.72C87.7413 194.72 89.2666 195.104 90.6106 195.872C91.976 196.64 93.0426 197.685 93.8106 199.008C94.5786 200.309 94.9626 201.813 94.9626 203.52C94.9626 205.227 94.5786 206.741 93.8106 208.064C93.0426 209.387 91.976 210.432 90.6106 211.2C89.2666 211.947 87.7413 212.32 86.0346 212.32ZM86.0346 208.352C86.8666 208.352 87.6133 208.149 88.2746 207.744C88.936 207.317 89.448 206.741 89.8106 206.016C90.1946 205.269 90.3866 204.437 90.3866 203.52C90.3866 202.581 90.1946 201.749 89.8106 201.024C89.448 200.277 88.936 199.701 88.2746 199.296C87.6133 198.869 86.8666 198.656 86.0346 198.656C85.1813 198.656 84.424 198.869 83.7626 199.296C83.1013 199.723 82.5786 200.299 82.1946 201.024C81.8106 201.749 81.6293 202.581 81.6506 203.52C81.6293 204.437 81.8106 205.269 82.1946 206.016C82.5786 206.741 83.1013 207.317 83.7626 207.744C84.424 208.149 85.1813 208.352 86.0346 208.352ZM105.005 212.32C103.533 212.32 102.211 211.947 101.037 211.2C99.864 210.432 98.936 209.397 98.2534 208.096C97.592 206.773 97.2614 205.248 97.2614 203.52C97.2614 201.835 97.592 200.331 98.2534 199.008C98.936 197.685 99.8534 196.64 101.005 195.872C102.179 195.104 103.512 194.72 105.005 194.72C105.795 194.72 106.552 194.848 107.277 195.104C108.024 195.339 108.685 195.669 109.261 196.096C109.859 196.523 110.339 197.003 110.701 197.536C111.064 198.048 111.267 198.592 111.309 199.168L110.157 199.36V188.32H114.701V212H110.413L110.221 208.096L111.117 208.192C111.075 208.725 110.883 209.237 110.541 209.728C110.2 210.219 109.741 210.667 109.165 211.072C108.611 211.456 107.971 211.765 107.245 212C106.541 212.213 105.795 212.32 105.005 212.32ZM106.029 208.544C106.883 208.544 107.629 208.331 108.269 207.904C108.909 207.477 109.411 206.891 109.773 206.144C110.136 205.397 110.317 204.523 110.317 203.52C110.317 202.539 110.136 201.675 109.773 200.928C109.411 200.16 108.909 199.573 108.269 199.168C107.629 198.741 106.883 198.528 106.029 198.528C105.176 198.528 104.429 198.741 103.789 199.168C103.171 199.573 102.68 200.16 102.317 200.928C101.976 201.675 101.805 202.539 101.805 203.52C101.805 204.523 101.976 205.397 102.317 206.144C102.68 206.891 103.171 207.477 103.789 207.904C104.429 208.331 105.176 208.544 106.029 208.544ZM127.003 212.32C125.275 212.32 123.729 211.947 122.363 211.2C121.019 210.432 119.953 209.387 119.163 208.064C118.395 206.741 118.011 205.227 118.011 203.52C118.011 201.813 118.395 200.309 119.163 199.008C119.953 197.685 121.019 196.64 122.363 195.872C123.729 195.104 125.275 194.72 127.003 194.72C128.71 194.72 130.235 195.104 131.579 195.872C132.945 196.64 134.011 197.685 134.779 199.008C135.547 200.309 135.931 201.813 135.931 203.52C135.931 205.227 135.547 206.741 134.779 208.064C134.011 209.387 132.945 210.432 131.579 211.2C130.235 211.947 128.71 212.32 127.003 212.32ZM127.003 208.352C127.835 208.352 128.582 208.149 129.243 207.744C129.905 207.317 130.417 206.741 130.779 206.016C131.163 205.269 131.355 204.437 131.355 203.52C131.355 202.581 131.163 201.749 130.779 201.024C130.417 200.277 129.905 199.701 129.243 199.296C128.582 198.869 127.835 198.656 127.003 198.656C126.15 198.656 125.393 198.869 124.731 199.296C124.07 199.723 123.547 200.299 123.163 201.024C122.779 201.749 122.598 202.581 122.619 203.52C122.598 204.437 122.779 205.269 123.163 206.016C123.547 206.741 124.07 207.317 124.731 207.744C125.393 208.149 126.15 208.352 127.003 208.352ZM139.35 212V195.072H143.734L143.894 200.512L143.126 199.392C143.382 198.517 143.798 197.728 144.374 197.024C144.95 196.299 145.622 195.733 146.39 195.328C147.179 194.923 148.001 194.72 148.854 194.72C149.217 194.72 149.569 194.752 149.91 194.816C150.251 194.88 150.539 194.955 150.774 195.04L149.558 200.032C149.302 199.904 148.993 199.797 148.63 199.712C148.267 199.605 147.894 199.552 147.51 199.552C146.998 199.552 146.518 199.648 146.07 199.84C145.643 200.011 145.27 200.267 144.95 200.608C144.63 200.928 144.374 201.312 144.182 201.76C144.011 202.208 143.926 202.699 143.926 203.232V212H139.35ZM160.535 212.32C158.807 212.32 157.26 211.947 155.895 211.2C154.551 210.432 153.484 209.387 152.695 208.064C151.927 206.741 151.543 205.227 151.543 203.52C151.543 201.813 151.927 200.309 152.695 199.008C153.484 197.685 154.551 196.64 155.895 195.872C157.26 195.104 158.807 194.72 160.535 194.72C162.241 194.72 163.767 195.104 165.111 195.872C166.476 196.64 167.543 197.685 168.311 199.008C169.079 200.309 169.463 201.813 169.463 203.52C169.463 205.227 169.079 206.741 168.311 208.064C167.543 209.387 166.476 210.432 165.111 211.2C163.767 211.947 162.241 212.32 160.535 212.32ZM160.535 208.352C161.367 208.352 162.113 208.149 162.775 207.744C163.436 207.317 163.948 206.741 164.311 206.016C164.695 205.269 164.887 204.437 164.887 203.52C164.887 202.581 164.695 201.749 164.311 201.024C163.948 200.277 163.436 199.701 162.775 199.296C162.113 198.869 161.367 198.656 160.535 198.656C159.681 198.656 158.924 198.869 158.263 199.296C157.601 199.723 157.079 200.299 156.695 201.024C156.311 201.749 156.129 202.581 156.151 203.52C156.129 204.437 156.311 205.269 156.695 206.016C157.079 206.741 157.601 207.317 158.263 207.744C158.924 208.149 159.681 208.352 160.535 208.352Z" fill="white"/>
</svg>
