<svg width="148" height="167" viewBox="0 0 148 167" fill="none" xmlns="http://www.w3.org/2000/svg">
<path fill-rule="evenodd" clip-rule="evenodd" d="M102.496 7.7887C104.589 7.63924 106.164 5.8218 106.015 3.72934C105.865 1.63688 104.048 0.06177 101.955 0.211231C86.8289 1.29168 77.0887 8.89243 72.1036 18.471C68.4093 13.4655 62.7732 10.8651 57.156 9.71153C49.3417 8.1068 40.8894 9.08779 35.4659 10.4437L30.3968 11.7109L33.1661 16.1418C42.8164 31.5823 58.5182 33.1118 68.2591 31.5379C67.6553 37.6826 68.617 43.7415 70.9342 48.6657C71.8275 50.5638 74.0903 51.3784 75.9884 50.4852C77.8865 49.592 78.7012 47.3291 77.8079 45.431C75.7515 41.061 75.0776 35.1614 76.2633 29.3189L76.3768 29.2811L76.3191 29.0504C76.7871 26.851 77.5199 24.6632 78.5428 22.5717C82.2086 15.0768 89.6609 8.70552 102.496 7.7887ZM66.7151 24.1106C60.1753 25.119 50.5115 24.2655 43.2337 16.7711C47.1291 16.3393 51.5585 16.3174 55.6279 17.153C60.5351 18.1607 64.4889 20.2803 66.7151 24.1106Z" fill="#2FCF5A"/>
<path fill-rule="evenodd" clip-rule="evenodd" d="M72.0123 45.0907C72.9196 45.4115 73.6516 45.6861 74.1814 45.8907H74.5606C75.0903 45.6861 75.8224 45.4115 76.7296 45.0907C78.6702 44.4046 81.4252 43.5028 84.7274 42.6226C91.279 40.8764 100.225 39.1498 109.329 39.4964C118.418 39.8425 128.209 42.2848 135.732 49.4462C143.333 56.6813 147.806 67.9516 147.806 84.2245C147.806 115.883 139.027 136.413 127.344 149.079C115.73 161.67 101.617 166.064 91.7534 166.065H91.5304L91.3082 166.045C85.3483 165.519 81.3233 163.001 78.5256 160.912C77.7951 160.367 77.2866 159.966 76.8664 159.634C76.3568 159.232 75.9773 158.933 75.4898 158.603C75.3406 158.502 75.2274 158.433 75.1466 158.387H73.5954C73.5146 158.433 73.4013 158.502 73.2521 158.603C72.7646 158.933 72.3852 159.232 71.8755 159.634C71.4554 159.966 70.9468 160.367 70.2163 160.912C67.4187 163.001 63.3937 165.519 57.4338 166.045L57.2116 166.065H56.9885C47.1253 166.064 33.0121 161.67 21.398 149.079C9.71533 136.413 0.935486 115.883 0.935486 84.2245C0.935486 67.9516 5.40943 56.6813 13.01 49.4462C20.5333 42.2848 30.3243 39.8425 39.4134 39.4964C48.5171 39.1498 57.463 40.8764 64.0146 42.6226C67.3167 43.5028 70.0717 44.4046 72.0123 45.0907ZM77.4823 55.6282L77.4835 55.6277L77.4842 55.6274L77.4863 55.6265L77.5061 55.6184L77.5395 55.6047L77.6201 55.5719C77.7268 55.5288 77.8942 55.462 78.1181 55.375C78.5662 55.201 79.2397 54.9467 80.106 54.6404C81.8411 54.027 84.337 53.2093 87.336 52.41C93.3867 50.7973 101.244 49.3249 108.943 49.6181C116.657 49.9118 123.669 51.9481 128.748 56.7828C133.75 61.5439 137.677 69.7873 137.677 84.2245C137.677 113.987 129.461 131.844 119.899 142.211C110.37 152.542 99.128 155.865 91.9822 155.934C88.79 155.605 86.6098 154.308 84.5858 152.796C84.3168 152.595 83.9676 152.324 83.5826 152.024L83.5821 152.023L83.582 152.023C82.7981 151.413 81.8663 150.687 81.1611 150.211C79.9692 149.405 78.0173 148.258 75.5298 148.258H73.2121C70.7247 148.258 68.7727 149.405 67.5808 150.211C66.8756 150.687 65.9437 151.413 65.1599 152.023L65.1594 152.024C64.7744 152.324 64.4252 152.595 64.1561 152.796C62.1321 154.308 59.952 155.605 56.7597 155.934C49.614 155.865 38.3721 152.542 28.8434 142.211C19.2808 131.844 11.0645 113.987 11.0645 84.2245C11.0645 69.7873 14.9921 61.5439 19.9937 56.7828C25.0727 51.9481 32.0848 49.9118 39.7988 49.6181C47.4981 49.3249 55.3552 50.7973 61.4059 52.41C64.4049 53.2093 66.9009 54.027 68.6359 54.6404C69.5023 54.9467 70.1757 55.201 70.6238 55.375C70.8477 55.462 71.0151 55.5288 71.1218 55.5719C71.1752 55.5935 71.2134 55.6091 71.2358 55.6184L71.2556 55.6265L71.2577 55.6274L71.2584 55.6277L71.2597 55.6282L72.1944 56.0197H73.2121H75.5298H76.5476L77.4823 55.6282ZM81.9677 74.9032C81.9677 72.1062 79.7003 69.8387 76.9032 69.8387C74.1061 69.8387 71.8387 72.1062 71.8387 74.9032V105.29V110.355H76.9032H114.887C117.684 110.355 119.952 108.087 119.952 105.29C119.952 102.493 117.684 100.226 114.887 100.226H81.9677V74.9032Z" fill="#FF7272"/>
</svg>
